<svg xmlns="http://www.w3.org/2000/svg" viewBox="0 0 1200 300" width="100%" role="img" aria-label="Sara Shafiee: animated robot among a network of AI agents">
<defs>
<linearGradient id="bg" x1="0" y1="0" x2="1" y2="1"><stop offset="0" stop-color="#0b1020"/><stop offset="1" stop-color="#1b1640"/></linearGradient>
<linearGradient id="tx" x1="0" x2="1"><stop offset="0" stop-color="#7dd3fc"/><stop offset="1" stop-color="#c4b5fd"/></linearGradient>
<linearGradient id="metal" x1="0" y1="0" x2="0" y2="1"><stop offset="0" stop-color="#e0e7ff"/><stop offset="1" stop-color="#a5b4fc"/></linearGradient>
<radialGradient id="glow"><stop offset="0" stop-color="#a78bfa" stop-opacity=".55"/><stop offset="1" stop-color="#a78bfa" stop-opacity="0"/></radialGradient>
<radialGradient id="bulb"><stop offset="0" stop-color="#fef08a"/><stop offset="1" stop-color="#f59e0b" stop-opacity="0"/></radialGradient>
</defs>
<rect width="1200" height="300" rx="18" fill="url(#bg)"/>
<path id="e0_2" d="M1103,249 L1160,246" stroke="#6366f1" stroke-opacity=".35" stroke-width="1.2"/>
<path id="e0_10" d="M1103,249 L1024,209" stroke="#6366f1" stroke-opacity=".35" stroke-width="1.2"/>
<path id="e1_4" d="M1116,143 L1045,143" stroke="#6366f1" stroke-opacity=".35" stroke-width="1.2"/>
<path id="e1_11" d="M1116,143 L1138,73" stroke="#6366f1" stroke-opacity=".35" stroke-width="1.2"/>
<path id="e2_1" d="M1160,246 L1116,143" stroke="#6366f1" stroke-opacity=".35" stroke-width="1.2"/>
<path id="e3_14" d="M682,180 L720,135" stroke="#6366f1" stroke-opacity=".35" stroke-width="1.2"/>
<path id="e3_5" d="M682,180 L655,240" stroke="#6366f1" stroke-opacity=".35" stroke-width="1.2"/>
<path id="e4_15" d="M1045,143 L989,118" stroke="#6366f1" stroke-opacity=".35" stroke-width="1.2"/>
<path id="e4_10" d="M1045,143 L1024,209" stroke="#6366f1" stroke-opacity=".35" stroke-width="1.2"/>
<path id="e5_14" d="M655,240 L720,135" stroke="#6366f1" stroke-opacity=".35" stroke-width="1.2"/>
<path id="e6_9" d="M704,43 L640,82" stroke="#6366f1" stroke-opacity=".35" stroke-width="1.2"/>
<path id="e6_14" d="M704,43 L720,135" stroke="#6366f1" stroke-opacity=".35" stroke-width="1.2"/>
<path id="e7_15" d="M941,155 L989,118" stroke="#6366f1" stroke-opacity=".35" stroke-width="1.2"/>
<path id="e7_10" d="M941,155 L1024,209" stroke="#6366f1" stroke-opacity=".35" stroke-width="1.2"/>
<path id="e8_15" d="M935,35 L989,118" stroke="#6366f1" stroke-opacity=".35" stroke-width="1.2"/>
<path id="e8_12" d="M935,35 L1032,57" stroke="#6366f1" stroke-opacity=".35" stroke-width="1.2"/>
<path id="e9_14" d="M640,82 L720,135" stroke="#6366f1" stroke-opacity=".35" stroke-width="1.2"/>
<path id="e10_13" d="M1024,209 L951,254" stroke="#6366f1" stroke-opacity=".35" stroke-width="1.2"/>
<path id="e11_12" d="M1138,73 L1032,57" stroke="#6366f1" stroke-opacity=".35" stroke-width="1.2"/>
<path id="e12_15" d="M1032,57 L989,118" stroke="#6366f1" stroke-opacity=".35" stroke-width="1.2"/>
<path id="e12_4" d="M1032,57 L1045,143" stroke="#6366f1" stroke-opacity=".35" stroke-width="1.2"/>
<path id="e13_7" d="M951,254 L941,155" stroke="#6366f1" stroke-opacity=".35" stroke-width="1.2"/>
<path id="a6" d="M825,62 L704,43" stroke="#fbbf24" stroke-opacity=".35" stroke-width="1.2" stroke-dasharray="4 5"><animate attributeName="stroke-dashoffset" values="0;-18" dur="1s" repeatCount="indefinite"/></path>
<circle r="3" fill="#fde68a"><animateMotion dur="1.8s" repeatCount="indefinite"><mpath href="#a6"/></animateMotion></circle>
<path id="a14" d="M825,62 L720,135" stroke="#fbbf24" stroke-opacity=".35" stroke-width="1.2" stroke-dasharray="4 5"><animate attributeName="stroke-dashoffset" values="0;-18" dur="1s" repeatCount="indefinite"/></path>
<circle r="3" fill="#fde68a"><animateMotion dur="1.8s" repeatCount="indefinite"><mpath href="#a14"/></animateMotion></circle>
<path id="a8" d="M825,62 L935,35" stroke="#fbbf24" stroke-opacity=".35" stroke-width="1.2" stroke-dasharray="4 5"><animate attributeName="stroke-dashoffset" values="0;-18" dur="1s" repeatCount="indefinite"/></path>
<circle r="3" fill="#fde68a"><animateMotion dur="1.8s" repeatCount="indefinite"><mpath href="#a8"/></animateMotion></circle>
<path id="a7" d="M825,62 L941,155" stroke="#fbbf24" stroke-opacity=".35" stroke-width="1.2" stroke-dasharray="4 5"><animate attributeName="stroke-dashoffset" values="0;-18" dur="1s" repeatCount="indefinite"/></path>
<circle r="3" fill="#fde68a"><animateMotion dur="1.8s" repeatCount="indefinite"><mpath href="#a7"/></animateMotion></circle>
<circle r="2.6" fill="#7dd3fc"><animateMotion dur="2.4s" repeatCount="indefinite"><mpath href="#e0_2"/></animateMotion></circle>
<circle r="2.6" fill="#7dd3fc"><animateMotion dur="3.0s" repeatCount="indefinite"><mpath href="#e1_4"/></animateMotion></circle>
<circle r="2.6" fill="#7dd3fc"><animateMotion dur="3.5999999999999996s" repeatCount="indefinite"><mpath href="#e2_1"/></animateMotion></circle>
<circle r="2.6" fill="#7dd3fc"><animateMotion dur="4.199999999999999s" repeatCount="indefinite"><mpath href="#e3_5"/></animateMotion></circle>
<circle r="2.6" fill="#7dd3fc"><animateMotion dur="4.8s" repeatCount="indefinite"><mpath href="#e4_10"/></animateMotion></circle>
<circle r="2.6" fill="#7dd3fc"><animateMotion dur="2.4s" repeatCount="indefinite"><mpath href="#e6_9"/></animateMotion></circle>
<circle r="2.6" fill="#7dd3fc"><animateMotion dur="3.0s" repeatCount="indefinite"><mpath href="#e7_15"/></animateMotion></circle>
<circle r="2.6" fill="#7dd3fc"><animateMotion dur="3.5999999999999996s" repeatCount="indefinite"><mpath href="#e8_15"/></animateMotion></circle>
<circle r="2.6" fill="#7dd3fc"><animateMotion dur="4.199999999999999s" repeatCount="indefinite"><mpath href="#e9_14"/></animateMotion></circle>
<circle r="2.6" fill="#7dd3fc"><animateMotion dur="4.8s" repeatCount="indefinite"><mpath href="#e11_12"/></animateMotion></circle>
<circle r="2.6" fill="#7dd3fc"><animateMotion dur="2.4s" repeatCount="indefinite"><mpath href="#e12_4"/></animateMotion></circle>
<circle cx="1103" cy="249" r="21" fill="url(#glow)"/><circle cx="1103" cy="249" r="7" fill="#c4b5fd"><animate attributeName="opacity" values=".4;1;.4" dur="3s" begin="0.0s" repeatCount="indefinite"/></circle>
<circle cx="1116" cy="143" r="12" fill="url(#glow)"/><circle cx="1116" cy="143" r="4" fill="#c4b5fd"><animate attributeName="opacity" values=".4;1;.4" dur="3s" begin="0.5s" repeatCount="indefinite"/></circle>
<circle cx="1160" cy="246" r="12" fill="url(#glow)"/><circle cx="1160" cy="246" r="4" fill="#c4b5fd"><animate attributeName="opacity" values=".4;1;.4" dur="3s" begin="1.0s" repeatCount="indefinite"/></circle>
<circle cx="682" cy="180" r="12" fill="url(#glow)"/><circle cx="682" cy="180" r="4" fill="#c4b5fd"><animate attributeName="opacity" values=".4;1;.4" dur="3s" begin="1.5s" repeatCount="indefinite"/></circle>
<circle cx="1045" cy="143" r="21" fill="url(#glow)"/><circle cx="1045" cy="143" r="7" fill="#c4b5fd"><animate attributeName="opacity" values=".4;1;.4" dur="3s" begin="2.0s" repeatCount="indefinite"/></circle>
<circle cx="655" cy="240" r="12" fill="url(#glow)"/><circle cx="655" cy="240" r="4" fill="#c4b5fd"><animate attributeName="opacity" values=".4;1;.4" dur="3s" begin="2.5s" repeatCount="indefinite"/></circle>
<circle cx="704" cy="43" r="12" fill="url(#glow)"/><circle cx="704" cy="43" r="4" fill="#c4b5fd"><animate attributeName="opacity" values=".4;1;.4" dur="3s" begin="0.0s" repeatCount="indefinite"/></circle>
<circle cx="941" cy="155" r="12" fill="url(#glow)"/><circle cx="941" cy="155" r="4" fill="#c4b5fd"><animate attributeName="opacity" values=".4;1;.4" dur="3s" begin="0.5s" repeatCount="indefinite"/></circle>
<circle cx="935" cy="35" r="21" fill="url(#glow)"/><circle cx="935" cy="35" r="7" fill="#c4b5fd"><animate attributeName="opacity" values=".4;1;.4" dur="3s" begin="1.0s" repeatCount="indefinite"/></circle>
<circle cx="640" cy="82" r="12" fill="url(#glow)"/><circle cx="640" cy="82" r="4" fill="#c4b5fd"><animate attributeName="opacity" values=".4;1;.4" dur="3s" begin="1.5s" repeatCount="indefinite"/></circle>
<circle cx="1024" cy="209" r="12" fill="url(#glow)"/><circle cx="1024" cy="209" r="4" fill="#c4b5fd"><animate attributeName="opacity" values=".4;1;.4" dur="3s" begin="2.0s" repeatCount="indefinite"/></circle>
<circle cx="1138" cy="73" r="12" fill="url(#glow)"/><circle cx="1138" cy="73" r="4" fill="#c4b5fd"><animate attributeName="opacity" values=".4;1;.4" dur="3s" begin="2.5s" repeatCount="indefinite"/></circle>
<circle cx="1032" cy="57" r="21" fill="url(#glow)"/><circle cx="1032" cy="57" r="7" fill="#c4b5fd"><animate attributeName="opacity" values=".4;1;.4" dur="3s" begin="0.0s" repeatCount="indefinite"/></circle>
<circle cx="951" cy="254" r="12" fill="url(#glow)"/><circle cx="951" cy="254" r="4" fill="#c4b5fd"><animate attributeName="opacity" values=".4;1;.4" dur="3s" begin="0.5s" repeatCount="indefinite"/></circle>
<circle cx="720" cy="135" r="12" fill="url(#glow)"/><circle cx="720" cy="135" r="4" fill="#c4b5fd"><animate attributeName="opacity" values=".4;1;.4" dur="3s" begin="1.0s" repeatCount="indefinite"/></circle>
<circle cx="989" cy="118" r="12" fill="url(#glow)"/><circle cx="989" cy="118" r="4" fill="#c4b5fd"><animate attributeName="opacity" values=".4;1;.4" dur="3s" begin="1.5s" repeatCount="indefinite"/></circle>
<g><animateTransform attributeName="transform" type="translate" values="0,0;0,-7;0,0" dur="2.4s" repeatCount="indefinite"/>

<ellipse cx="825" cy="272" rx="48" ry="6" fill="#000" opacity=".35"/>
<line x1="825" y1="68" x2="825" y2="92" stroke="#c7d2fe" stroke-width="4"/>
<circle cx="825" cy="62" r="16" fill="url(#bulb)"><animate attributeName="r" values="12;20;12" dur="1.2s" repeatCount="indefinite"/></circle>
<circle cx="825" cy="62" r="7" fill="#fbbf24"><animate attributeName="fill" values="#fbbf24;#fde68a;#fbbf24" dur="1.2s" repeatCount="indefinite"/></circle>
<rect x="770" y="92" width="110" height="82" rx="24" fill="url(#metal)"/>
<rect x="760" y="118" width="12" height="28" rx="5" fill="#818cf8"/><rect x="878" y="118" width="12" height="28" rx="5" fill="#818cf8"/>
<rect x="784" y="108" width="82" height="48" rx="16" fill="#0f172a"/>
<ellipse cx="808" cy="130" rx="9" ry="10" fill="#67e8f9"><animate attributeName="ry" values="10;10;1;10;10" keyTimes="0;.88;.92;.96;1" dur="4s" repeatCount="indefinite"/></ellipse>
<ellipse cx="842" cy="130" rx="9" ry="10" fill="#67e8f9"><animate attributeName="ry" values="10;10;1;10;10" keyTimes="0;.88;.92;.96;1" dur="4s" repeatCount="indefinite"/></ellipse>
<path d="M812 146 Q825 154 838 146" stroke="#67e8f9" stroke-width="3" fill="none" stroke-linecap="round"/>
<rect x="813" y="174" width="24" height="10" fill="#a5b4fc"/>
<rect x="782" y="184" width="86" height="72" rx="18" fill="url(#metal)"/>
<circle cx="825" cy="214" r="12" fill="#0f172a"/>
<g transform="translate(825 216)"><path d="M0 6 l-7 -7 a4.5 4.5 0 0 1 7 -5 a4.5 4.5 0 0 1 7 5 z" fill="#f472b6"><animateTransform attributeName="transform" type="scale" values="1;1.2;1" dur="1s" repeatCount="indefinite"/></path></g>
<rect x="800" y="238" width="10" height="6" rx="2" fill="#22c55e"><animate attributeName="opacity" values="1;.2;1" dur=".8s" repeatCount="indefinite"/></rect>
<rect x="815" y="238" width="10" height="6" rx="2" fill="#fbbf24"><animate attributeName="opacity" values=".2;1;.2" dur=".8s" repeatCount="indefinite"/></rect>
<rect x="830" y="238" width="10" height="6" rx="2" fill="#38bdf8"><animate attributeName="opacity" values="1;.2;1" dur="1.1s" repeatCount="indefinite"/></rect>
<rect x="760" y="192" width="18" height="50" rx="9" fill="#a5b4fc"/>
<circle cx="769" cy="248" r="9" fill="#c7d2fe"/>
<g><animateTransform attributeName="transform" type="rotate" values="20 878 196;-35 878 196;20 878 196" dur="1.4s" repeatCount="indefinite"/>
<rect x="872" y="146" width="18" height="54" rx="9" fill="#a5b4fc"/><circle cx="881" cy="142" r="10" fill="#c7d2fe"/></g>
<rect x="796" y="256" width="20" height="14" rx="5" fill="#818cf8"/><rect x="834" y="256" width="20" height="14" rx="5" fill="#818cf8"/>
</g>
<text x="56" y="112" font-family="Segoe UI, Helvetica, Arial, sans-serif" font-size="52" font-weight="700" fill="url(#tx)">Sara Shafiee</text>
<text x="58" y="152" font-family="Segoe UI, Helvetica, Arial, sans-serif" font-size="20" fill="#e2e8f0">Senior Researcher · Technical University of Denmark</text>
<text x="58" y="188" font-family="Segoe UI, Helvetica, Arial, sans-serif" font-size="17" fill="#94a3b8">Teaching machines to reason about engineering,</text>
<text x="58" y="212" font-family="Segoe UI, Helvetica, Arial, sans-serif" font-size="17" fill="#94a3b8">one agent at a time.</text>
</svg>