<svg xmlns="http://www.w3.org/2000/svg" viewBox="0 0 1100 400" width="100%" role="img" aria-label="Publications per year by theme">
<rect width="1100" height="400" rx="18" fill="#0f1226"/>
<line x1="44" x2="1084" y1="270.0" y2="270.0" stroke="#2a2f52"/><text x="36" y="274.0" text-anchor="end" font-family="Segoe UI, Helvetica, Arial, sans-serif" font-size="12" fill="#9aa3bf">0</text>
<line x1="44" x2="1084" y1="207.5" y2="207.5" stroke="#2a2f52"/><text x="36" y="211.5" text-anchor="end" font-family="Segoe UI, Helvetica, Arial, sans-serif" font-size="12" fill="#9aa3bf">4</text>
<line x1="44" x2="1084" y1="145.0" y2="145.0" stroke="#2a2f52"/><text x="36" y="149.0" text-anchor="end" font-family="Segoe UI, Helvetica, Arial, sans-serif" font-size="12" fill="#9aa3bf">8</text>
<line x1="44" x2="1084" y1="82.5" y2="82.5" stroke="#2a2f52"/><text x="36" y="86.5" text-anchor="end" font-family="Segoe UI, Helvetica, Arial, sans-serif" font-size="12" fill="#9aa3bf">12</text>
<line x1="44" x2="1084" y1="20.0" y2="20.0" stroke="#2a2f52"/><text x="36" y="24.0" text-anchor="end" font-family="Segoe UI, Helvetica, Arial, sans-serif" font-size="12" fill="#9aa3bf">16</text>
<rect x="58.4" y="238.8" width="51.2" height="31.2" rx="2" fill="#7dd3fc"><title>2014: 2</title></rect>
<text x="84.0" y="288" text-anchor="middle" font-family="Segoe UI, Helvetica, Arial, sans-serif" font-size="12" fill="#9aa3bf">2014</text>
<rect x="138.4" y="176.2" width="51.2" height="93.8" rx="2" fill="#7dd3fc"><title>2015: 6</title></rect>
<rect x="138.4" y="160.6" width="51.2" height="15.6" rx="2" fill="#a78bfa"><title>2015: 1</title></rect>
<rect x="138.4" y="145.0" width="51.2" height="15.6" rx="2" fill="#fb923c"><title>2015: 1</title></rect>
<text x="164.0" y="288" text-anchor="middle" font-family="Segoe UI, Helvetica, Arial, sans-serif" font-size="12" fill="#9aa3bf">2015</text>
<rect x="218.4" y="129.4" width="51.2" height="140.6" rx="2" fill="#7dd3fc"><title>2016: 9</title></rect>
<text x="244.0" y="288" text-anchor="middle" font-family="Segoe UI, Helvetica, Arial, sans-serif" font-size="12" fill="#9aa3bf">2016</text>
<rect x="298.4" y="160.6" width="51.2" height="109.4" rx="2" fill="#7dd3fc"><title>2017: 7</title></rect>
<text x="324.0" y="288" text-anchor="middle" font-family="Segoe UI, Helvetica, Arial, sans-serif" font-size="12" fill="#9aa3bf">2017</text>
<rect x="378.4" y="160.6" width="51.2" height="109.4" rx="2" fill="#7dd3fc"><title>2018: 7</title></rect>
<rect x="378.4" y="129.4" width="51.2" height="31.2" rx="2" fill="#a78bfa"><title>2018: 2</title></rect>
<rect x="378.4" y="98.1" width="51.2" height="31.2" rx="2" fill="#34d399"><title>2018: 2</title></rect>
<rect x="378.4" y="82.5" width="51.2" height="15.6" rx="2" fill="#94a3b8"><title>2018: 1</title></rect>
<rect x="378.4" y="66.9" width="51.2" height="15.6" rx="2" fill="#fb923c"><title>2018: 1</title></rect>
<text x="404.0" y="288" text-anchor="middle" font-family="Segoe UI, Helvetica, Arial, sans-serif" font-size="12" fill="#9aa3bf">2018</text>
<rect x="458.4" y="176.2" width="51.2" height="93.8" rx="2" fill="#7dd3fc"><title>2019: 6</title></rect>
<rect x="458.4" y="145.0" width="51.2" height="31.2" rx="2" fill="#a78bfa"><title>2019: 2</title></rect>
<rect x="458.4" y="129.4" width="51.2" height="15.6" rx="2" fill="#34d399"><title>2019: 1</title></rect>
<rect x="458.4" y="113.8" width="51.2" height="15.6" rx="2" fill="#94a3b8"><title>2019: 1</title></rect>
<text x="484.0" y="288" text-anchor="middle" font-family="Segoe UI, Helvetica, Arial, sans-serif" font-size="12" fill="#9aa3bf">2019</text>
<rect x="538.4" y="238.8" width="51.2" height="31.2" rx="2" fill="#7dd3fc"><title>2020: 2</title></rect>
<rect x="538.4" y="191.9" width="51.2" height="46.9" rx="2" fill="#a78bfa"><title>2020: 3</title></rect>
<rect x="538.4" y="176.2" width="51.2" height="15.6" rx="2" fill="#34d399"><title>2020: 1</title></rect>
<rect x="538.4" y="160.6" width="51.2" height="15.6" rx="2" fill="#f472b6"><title>2020: 1</title></rect>
<text x="564.0" y="288" text-anchor="middle" font-family="Segoe UI, Helvetica, Arial, sans-serif" font-size="12" fill="#9aa3bf">2020</text>
<rect x="618.4" y="223.1" width="51.2" height="46.9" rx="2" fill="#7dd3fc"><title>2021: 3</title></rect>
<rect x="618.4" y="160.6" width="51.2" height="62.5" rx="2" fill="#a78bfa"><title>2021: 4</title></rect>
<rect x="618.4" y="129.4" width="51.2" height="31.2" rx="2" fill="#94a3b8"><title>2021: 2</title></rect>
<rect x="618.4" y="98.1" width="51.2" height="31.2" rx="2" fill="#f472b6"><title>2021: 2</title></rect>
<text x="644.0" y="288" text-anchor="middle" font-family="Segoe UI, Helvetica, Arial, sans-serif" font-size="12" fill="#9aa3bf">2021</text>
<rect x="698.4" y="254.4" width="51.2" height="15.6" rx="2" fill="#7dd3fc"><title>2022: 1</title></rect>
<rect x="698.4" y="223.1" width="51.2" height="31.2" rx="2" fill="#94a3b8"><title>2022: 2</title></rect>
<rect x="698.4" y="191.9" width="51.2" height="31.2" rx="2" fill="#f472b6"><title>2022: 2</title></rect>
<rect x="698.4" y="176.2" width="51.2" height="15.6" rx="2" fill="#fbbf24"><title>2022: 1</title></rect>
<rect x="698.4" y="145.0" width="51.2" height="31.2" rx="2" fill="#fb923c"><title>2022: 2</title></rect>
<text x="724.0" y="288" text-anchor="middle" font-family="Segoe UI, Helvetica, Arial, sans-serif" font-size="12" fill="#9aa3bf">2022</text>
<rect x="778.4" y="254.4" width="51.2" height="15.6" rx="2" fill="#7dd3fc"><title>2023: 1</title></rect>
<rect x="778.4" y="207.5" width="51.2" height="46.9" rx="2" fill="#a78bfa"><title>2023: 3</title></rect>
<rect x="778.4" y="191.9" width="51.2" height="15.6" rx="2" fill="#34d399"><title>2023: 1</title></rect>
<rect x="778.4" y="160.6" width="51.2" height="31.2" rx="2" fill="#94a3b8"><title>2023: 2</title></rect>
<rect x="778.4" y="145.0" width="51.2" height="15.6" rx="2" fill="#f472b6"><title>2023: 1</title></rect>
<text x="804.0" y="288" text-anchor="middle" font-family="Segoe UI, Helvetica, Arial, sans-serif" font-size="12" fill="#9aa3bf">2023</text>
<rect x="858.4" y="254.4" width="51.2" height="15.6" rx="2" fill="#7dd3fc"><title>2024: 1</title></rect>
<rect x="858.4" y="238.8" width="51.2" height="15.6" rx="2" fill="#a78bfa"><title>2024: 1</title></rect>
<rect x="858.4" y="207.5" width="51.2" height="31.2" rx="2" fill="#f472b6"><title>2024: 2</title></rect>
<rect x="858.4" y="176.2" width="51.2" height="31.2" rx="2" fill="#fbbf24"><title>2024: 2</title></rect>
<text x="884.0" y="288" text-anchor="middle" font-family="Segoe UI, Helvetica, Arial, sans-serif" font-size="12" fill="#9aa3bf">2024</text>
<rect x="938.4" y="254.4" width="51.2" height="15.6" rx="2" fill="#34d399"><title>2025: 1</title></rect>
<rect x="938.4" y="238.8" width="51.2" height="15.6" rx="2" fill="#94a3b8"><title>2025: 1</title></rect>
<rect x="938.4" y="191.9" width="51.2" height="46.9" rx="2" fill="#fbbf24"><title>2025: 3</title></rect>
<text x="964.0" y="288" text-anchor="middle" font-family="Segoe UI, Helvetica, Arial, sans-serif" font-size="12" fill="#9aa3bf">2025</text>
<rect x="1018.4" y="254.4" width="51.2" height="15.6" rx="2" fill="#f472b6"><title>2026: 1</title></rect>
<rect x="1018.4" y="191.9" width="51.2" height="62.5" rx="2" fill="#fbbf24"><title>2026: 4</title></rect>
<text x="1044.0" y="288" text-anchor="middle" font-family="Segoe UI, Helvetica, Arial, sans-serif" font-size="12" fill="#9aa3bf">2026</text>
<circle cx="49.0" cy="318" r="5" fill="#7dd3fc"/><text x="59.0" y="322" font-family="Segoe UI, Helvetica, Arial, sans-serif" font-size="12.5" fill="#c9cde0">Product configuration &amp; mass customization</text>
<circle cx="569.0" cy="318" r="5" fill="#a78bfa"/><text x="579.0" y="322" font-family="Segoe UI, Helvetica, Arial, sans-serif" font-size="12.5" fill="#c9cde0">Agile &amp; model-driven engineering of configurators</text>
<circle cx="49.0" cy="338" r="5" fill="#34d399"/><text x="59.0" y="342" font-family="Segoe UI, Helvetica, Arial, sans-serif" font-size="12.5" fill="#c9cde0">Construction &amp; modular design</text>
<circle cx="569.0" cy="338" r="5" fill="#94a3b8"/><text x="579.0" y="342" font-family="Segoe UI, Helvetica, Arial, sans-serif" font-size="12.5" fill="#c9cde0">Organisation, leadership &amp; digital transformation</text>
<circle cx="49.0" cy="358" r="5" fill="#f472b6"/><text x="59.0" y="362" font-family="Segoe UI, Helvetica, Arial, sans-serif" font-size="12.5" fill="#c9cde0">Data-driven product innovation &amp; recommender systems</text>
<circle cx="569.0" cy="358" r="5" fill="#fbbf24"/><text x="579.0" y="362" font-family="Segoe UI, Helvetica, Arial, sans-serif" font-size="12.5" fill="#c9cde0">AI, agents &amp; digital manufacturing</text>
<circle cx="49.0" cy="378" r="5" fill="#fb923c"/><text x="59.0" y="382" font-family="Segoe UI, Helvetica, Arial, sans-serif" font-size="12.5" fill="#c9cde0">Collaborations beyond engineering</text>
</svg>