<svg xmlns="http://www.w3.org/2000/svg" viewBox="0 0 1100 560" width="100%" role="img" aria-label="Publications per year by research cluster">
<rect width="1100" height="560" rx="18" fill="#0b0e22"/>
<rect x="18" y="16" width="1064" height="66" rx="12" fill="#0f1226" stroke="#2a2f52"/>
<circle cx="40" cy="36" r="6" fill="#f87171"/>
<circle cx="60" cy="36" r="6" fill="#fbbf24"/>
<circle cx="80" cy="36" r="6" fill="#34d399"/>
<text x="40" y="68" font-family="ui-monospace, SFMono-Regular, Menlo, Consolas, monospace" font-size="21" fill="#7dd3fc">$ plot papers_per_year --hue cluster</text>
<line x1="60" x2="1076" y1="390.0" y2="390.0" stroke="#2a2f52"/><text x="50" y="397.0" text-anchor="end" font-family="Segoe UI, Helvetica, Arial, sans-serif" font-size="20" fill="#9aa3bf">0</text>
<line x1="60" x2="1076" y1="325.0" y2="325.0" stroke="#2a2f52"/><text x="50" y="332.0" text-anchor="end" font-family="Segoe UI, Helvetica, Arial, sans-serif" font-size="20" fill="#9aa3bf">4</text>
<line x1="60" x2="1076" y1="260.0" y2="260.0" stroke="#2a2f52"/><text x="50" y="267.0" text-anchor="end" font-family="Segoe UI, Helvetica, Arial, sans-serif" font-size="20" fill="#9aa3bf">8</text>
<line x1="60" x2="1076" y1="195.0" y2="195.0" stroke="#2a2f52"/><text x="50" y="202.0" text-anchor="end" font-family="Segoe UI, Helvetica, Arial, sans-serif" font-size="20" fill="#9aa3bf">12</text>
<line x1="60" x2="1076" y1="130.0" y2="130.0" stroke="#2a2f52"/><text x="50" y="137.0" text-anchor="end" font-family="Segoe UI, Helvetica, Arial, sans-serif" font-size="20" fill="#9aa3bf">16</text>
<rect x="70.9" y="357.5" width="56.3" height="32.5" rx="3" fill="#7dd3fc"><title>2014: 2 · Product configuration</title></rect>
<text x="99.1" y="420" text-anchor="middle" font-family="Segoe UI, Helvetica, Arial, sans-serif" font-size="20" fill="#9aa3bf">2014</text>
<rect x="149.1" y="292.5" width="56.3" height="97.5" rx="3" fill="#7dd3fc"><title>2015: 6 · Product configuration</title></rect>
<rect x="149.1" y="276.2" width="56.3" height="16.2" rx="3" fill="#a78bfa"><title>2015: 1 · Agile &amp; model-driven</title></rect>
<rect x="149.1" y="260.0" width="56.3" height="16.2" rx="3" fill="#fb923c"><title>2015: 1 · Beyond engineering</title></rect>
<rect x="227.2" y="243.8" width="56.3" height="146.2" rx="3" fill="#7dd3fc"><title>2016: 9 · Product configuration</title></rect>
<text x="255.4" y="420" text-anchor="middle" font-family="Segoe UI, Helvetica, Arial, sans-serif" font-size="20" fill="#9aa3bf">2016</text>
<rect x="305.4" y="276.2" width="56.3" height="113.8" rx="3" fill="#7dd3fc"><title>2017: 7 · Product configuration</title></rect>
<rect x="383.6" y="276.2" width="56.3" height="113.8" rx="3" fill="#7dd3fc"><title>2018: 7 · Product configuration</title></rect>
<rect x="383.6" y="243.8" width="56.3" height="32.5" rx="3" fill="#a78bfa"><title>2018: 2 · Agile &amp; model-driven</title></rect>
<rect x="383.6" y="211.2" width="56.3" height="32.5" rx="3" fill="#34d399"><title>2018: 2 · Construction &amp; modular</title></rect>
<rect x="383.6" y="195.0" width="56.3" height="16.2" rx="3" fill="#94a3b8"><title>2018: 1 · Digital transformation</title></rect>
<rect x="383.6" y="178.8" width="56.3" height="16.2" rx="3" fill="#fb923c"><title>2018: 1 · Beyond engineering</title></rect>
<text x="411.7" y="420" text-anchor="middle" font-family="Segoe UI, Helvetica, Arial, sans-serif" font-size="20" fill="#9aa3bf">2018</text>
<rect x="461.7" y="292.5" width="56.3" height="97.5" rx="3" fill="#7dd3fc"><title>2019: 6 · Product configuration</title></rect>
<rect x="461.7" y="260.0" width="56.3" height="32.5" rx="3" fill="#a78bfa"><title>2019: 2 · Agile &amp; model-driven</title></rect>
<rect x="461.7" y="243.8" width="56.3" height="16.2" rx="3" fill="#34d399"><title>2019: 1 · Construction &amp; modular</title></rect>
<rect x="461.7" y="227.5" width="56.3" height="16.2" rx="3" fill="#94a3b8"><title>2019: 1 · Digital transformation</title></rect>
<rect x="539.9" y="357.5" width="56.3" height="32.5" rx="3" fill="#7dd3fc"><title>2020: 2 · Product configuration</title></rect>
<rect x="539.9" y="308.8" width="56.3" height="48.8" rx="3" fill="#a78bfa"><title>2020: 3 · Agile &amp; model-driven</title></rect>
<rect x="539.9" y="292.5" width="56.3" height="16.2" rx="3" fill="#34d399"><title>2020: 1 · Construction &amp; modular</title></rect>
<rect x="539.9" y="276.2" width="56.3" height="16.2" rx="3" fill="#f472b6"><title>2020: 1 · Recommender systems</title></rect>
<text x="568.0" y="420" text-anchor="middle" font-family="Segoe UI, Helvetica, Arial, sans-serif" font-size="20" fill="#9aa3bf">2020</text>
<rect x="618.0" y="341.2" width="56.3" height="48.8" rx="3" fill="#7dd3fc"><title>2021: 3 · Product configuration</title></rect>
<rect x="618.0" y="276.2" width="56.3" height="65.0" rx="3" fill="#a78bfa"><title>2021: 4 · Agile &amp; model-driven</title></rect>
<rect x="618.0" y="243.8" width="56.3" height="32.5" rx="3" fill="#94a3b8"><title>2021: 2 · Digital transformation</title></rect>
<rect x="618.0" y="211.2" width="56.3" height="32.5" rx="3" fill="#f472b6"><title>2021: 2 · Recommender systems</title></rect>
<rect x="696.2" y="373.8" width="56.3" height="16.2" rx="3" fill="#7dd3fc"><title>2022: 1 · Product configuration</title></rect>
<rect x="696.2" y="341.2" width="56.3" height="32.5" rx="3" fill="#94a3b8"><title>2022: 2 · Digital transformation</title></rect>
<rect x="696.2" y="308.8" width="56.3" height="32.5" rx="3" fill="#f472b6"><title>2022: 2 · Recommender systems</title></rect>
<rect x="696.2" y="292.5" width="56.3" height="16.2" rx="3" fill="#fbbf24"><title>2022: 1 · AI for manufacturing</title></rect>
<rect x="696.2" y="260.0" width="56.3" height="32.5" rx="3" fill="#fb923c"><title>2022: 2 · Beyond engineering</title></rect>
<text x="724.3" y="420" text-anchor="middle" font-family="Segoe UI, Helvetica, Arial, sans-serif" font-size="20" fill="#9aa3bf">2022</text>
<rect x="774.3" y="373.8" width="56.3" height="16.2" rx="3" fill="#7dd3fc"><title>2023: 1 · Product configuration</title></rect>
<rect x="774.3" y="325.0" width="56.3" height="48.8" rx="3" fill="#a78bfa"><title>2023: 3 · Agile &amp; model-driven</title></rect>
<rect x="774.3" y="308.8" width="56.3" height="16.2" rx="3" fill="#34d399"><title>2023: 1 · Construction &amp; modular</title></rect>
<rect x="774.3" y="276.2" width="56.3" height="32.5" rx="3" fill="#94a3b8"><title>2023: 2 · Digital transformation</title></rect>
<rect x="774.3" y="260.0" width="56.3" height="16.2" rx="3" fill="#f472b6"><title>2023: 1 · Recommender systems</title></rect>
<rect x="852.5" y="373.8" width="56.3" height="16.2" rx="3" fill="#7dd3fc"><title>2024: 1 · Product configuration</title></rect>
<rect x="852.5" y="357.5" width="56.3" height="16.2" rx="3" fill="#a78bfa"><title>2024: 1 · Agile &amp; model-driven</title></rect>
<rect x="852.5" y="325.0" width="56.3" height="32.5" rx="3" fill="#f472b6"><title>2024: 2 · Recommender systems</title></rect>
<rect x="852.5" y="292.5" width="56.3" height="32.5" rx="3" fill="#fbbf24"><title>2024: 2 · AI for manufacturing</title></rect>
<text x="880.6" y="420" text-anchor="middle" font-family="Segoe UI, Helvetica, Arial, sans-serif" font-size="20" fill="#9aa3bf">2024</text>
<rect x="930.6" y="373.8" width="56.3" height="16.2" rx="3" fill="#34d399"><title>2025: 1 · Construction &amp; modular</title></rect>
<rect x="930.6" y="357.5" width="56.3" height="16.2" rx="3" fill="#94a3b8"><title>2025: 1 · Digital transformation</title></rect>
<rect x="930.6" y="308.8" width="56.3" height="48.8" rx="3" fill="#fbbf24"><title>2025: 3 · AI for manufacturing</title></rect>
<rect x="1008.8" y="373.8" width="56.3" height="16.2" rx="3" fill="#f472b6"><title>2026: 1 · Recommender systems</title></rect>
<rect x="1008.8" y="308.8" width="56.3" height="65.0" rx="3" fill="#fbbf24"><title>2026: 4 · AI for manufacturing</title></rect>
<text x="1036.9" y="420" text-anchor="middle" font-family="Segoe UI, Helvetica, Arial, sans-serif" font-size="20" fill="#9aa3bf">2026</text>
<circle cx="68.0" cy="457" r="8" fill="#7dd3fc"/><text x="84.0" y="464" font-family="Segoe UI, Helvetica, Arial, sans-serif" font-size="21" fill="#e6e8f2">Product configuration</text>
<circle cx="576.0" cy="457" r="8" fill="#a78bfa"/><text x="592.0" y="464" font-family="Segoe UI, Helvetica, Arial, sans-serif" font-size="21" fill="#e6e8f2">Agile &amp; model-driven</text>
<circle cx="68.0" cy="487" r="8" fill="#34d399"/><text x="84.0" y="494" font-family="Segoe UI, Helvetica, Arial, sans-serif" font-size="21" fill="#e6e8f2">Construction &amp; modular</text>
<circle cx="576.0" cy="487" r="8" fill="#94a3b8"/><text x="592.0" y="494" font-family="Segoe UI, Helvetica, Arial, sans-serif" font-size="21" fill="#e6e8f2">Digital transformation</text>
<circle cx="68.0" cy="517" r="8" fill="#f472b6"/><text x="84.0" y="524" font-family="Segoe UI, Helvetica, Arial, sans-serif" font-size="21" fill="#e6e8f2">Recommender systems</text>
<circle cx="576.0" cy="517" r="8" fill="#fbbf24"/><text x="592.0" y="524" font-family="Segoe UI, Helvetica, Arial, sans-serif" font-size="21" fill="#e6e8f2">AI for manufacturing</text>
<circle cx="68.0" cy="547" r="8" fill="#fb923c"/><text x="84.0" y="554" font-family="Segoe UI, Helvetica, Arial, sans-serif" font-size="21" fill="#e6e8f2">Beyond engineering</text>
</svg>